<svg width="111" height="16" viewBox="0 0 111 16" fill="none" xmlns="http://www.w3.org/2000/svg">
<g clip-path="url(#clip0_38_57)">
<path d="M-0.000135705 1.9432C-0.0113307 1.83187 0.0184964 1.72028 0.083771 1.6293C0.120747 1.58629 0.166767 1.55194 0.218561 1.52869C0.270355 1.50543 0.32665 1.49385 0.383439 1.49477L6.34683 1.11809C6.95641 1.0768 7.56805 1.15917 8.14484 1.36024C8.69864 1.55485 9.21168 1.84978 9.65816 2.2302C10.0971 2.61235 10.4583 3.07517 10.722 3.59343C10.9932 4.12649 11.1514 4.70963 11.1865 5.30642C11.2132 5.70756 11.1809 6.11044 11.0906 6.50224C10.9152 7.25987 10.5443 7.95862 10.0148 8.52915C9.75545 8.81282 9.46148 9.06291 9.13974 9.27354L11.7978 13.5904C11.8457 13.6741 11.9087 13.7728 11.9836 13.8894C12.0502 13.9762 12.0917 14.0796 12.1035 14.1883C12.1093 14.2308 12.1051 14.2741 12.091 14.3146C12.077 14.3551 12.0535 14.3918 12.0225 14.4215C11.9496 14.4805 11.8587 14.5132 11.7648 14.5142L8.59734 14.7145C8.49181 14.7247 8.38599 14.6983 8.29767 14.6398C8.211 14.5861 8.14784 14.5017 8.12086 14.4036L5.60965 10.3348L4.11131 10.4275L4.37501 14.583C4.39299 14.846 4.25814 14.9865 3.97645 15.0045L1.23449 15.1779C1.12837 15.1904 1.02139 15.1627 0.934827 15.1001C0.891794 15.0635 0.857787 15.0175 0.835442 14.9657C0.813097 14.9138 0.803016 14.8575 0.805972 14.8012L-0.000135705 1.9432ZM7.49156 5.57847C7.48019 5.38947 7.43449 5.2041 7.35671 5.03139C7.27762 4.85306 7.17038 4.68854 7.03906 4.5441C6.90479 4.39764 6.74549 4.27616 6.56859 4.18535C6.38764 4.08949 6.18859 4.03246 5.98423 4.01793H5.50476C5.35293 4.01793 5.18812 4.02391 5.01031 4.03587L3.73372 4.11659L3.94949 7.49776L5.6486 7.39014C5.75948 7.39014 5.85837 7.37219 5.94827 7.36023C6.03817 7.34828 6.13107 7.33633 6.23295 7.3154C6.43675 7.28256 6.63099 7.20606 6.80233 7.09119C6.96401 6.98314 7.10339 6.8451 7.21287 6.6846C7.3216 6.52522 7.40171 6.34819 7.44961 6.16143C7.49413 5.97049 7.50728 5.77362 7.48856 5.57847H7.49156Z" fill="#7989C4"/>
<path d="M24.0992 12.6667C23.6517 13.2422 23.1047 13.7332 22.4839 14.1166C21.8555 14.5062 21.1557 14.7674 20.4252 14.8849C18.8198 15.1574 17.171 14.7984 15.8253 13.8834C15.1729 13.4353 14.6133 12.8659 14.1771 12.2063C13.7174 11.5133 13.411 10.7306 13.2781 9.91031C13.1911 9.38681 13.171 8.85442 13.2182 8.32586C13.2613 7.81608 13.369 7.31381 13.5389 6.83109C13.7062 6.35288 13.9338 5.8978 14.2161 5.47683C14.4962 5.05614 14.8318 4.67502 15.214 4.34379C15.6036 4.00853 16.0358 3.72607 16.4996 3.50373C16.9879 3.27273 17.5064 3.1117 18.0399 3.0254C18.5349 2.94195 19.0392 2.92787 19.5382 2.98355C20.0274 3.0354 20.5078 3.14995 20.9676 3.32436C21.8815 3.67347 22.6955 4.24118 23.338 4.97758C23.6555 5.33932 23.9235 5.74142 24.1351 6.17339C24.348 6.61017 24.4963 7.07538 24.5756 7.55456C24.6266 7.87145 24.6655 8.12854 24.6895 8.33183C24.7173 8.5018 24.6954 8.67616 24.6266 8.83407C24.5427 8.98295 24.4058 9.09499 24.243 9.14798C23.9649 9.25023 23.6765 9.32239 23.3829 9.36322L16.8142 10.4484C16.9178 10.7901 17.0994 11.1033 17.3446 11.3632C17.558 11.5815 17.8113 11.757 18.0908 11.8804C18.3555 11.9932 18.6369 12.0618 18.9239 12.0837C19.1877 12.1054 19.4532 12.0963 19.715 12.0568C19.9418 12.0162 20.1645 11.9552 20.3803 11.8744C20.6004 11.7913 20.8138 11.6914 21.0186 11.5755C21.2127 11.4714 21.3972 11.3503 21.57 11.2137C21.7145 11.1039 21.8427 10.974 21.9505 10.8281C22.0182 10.7493 22.0924 10.6763 22.1723 10.6099C22.2334 10.5596 22.3068 10.5266 22.3851 10.5142C22.4723 10.5009 22.5614 10.5155 22.6398 10.556C22.7524 10.6085 22.8598 10.6715 22.9604 10.7444L24.1081 11.6771C24.176 11.7298 24.2321 11.796 24.273 11.8714C24.301 11.9324 24.3211 11.9967 24.3329 12.0628C24.3532 12.175 24.3352 12.2907 24.282 12.3916C24.2354 12.492 24.1737 12.5848 24.0992 12.6667ZM18.4474 5.80866C18.2107 5.84917 17.9845 5.9366 17.7822 6.06577C17.5732 6.1986 17.3845 6.3607 17.2218 6.54708C17.0519 6.73648 16.9051 6.94518 16.7843 7.16889C16.6687 7.38376 16.5763 7.61024 16.5086 7.84453L21.1714 7.07025C21.0111 6.85873 20.8359 6.65891 20.647 6.47235C20.4681 6.29861 20.2665 6.14977 20.0476 6.02988C19.8252 5.90616 19.5828 5.8222 19.3314 5.78176C19.0373 5.74176 18.7386 5.75084 18.4474 5.80866Z" fill="#7989C4"/>
<path d="M25.8521 2.92974C25.8075 2.82673 25.7863 2.71517 25.7899 2.60303C25.7936 2.49089 25.822 2.38093 25.8731 2.281C25.972 2.11359 26.1728 2.05081 26.4545 2.08968L28.8009 2.41554C28.9503 2.43288 29.09 2.49789 29.1994 2.60088C29.3095 2.70818 29.3802 2.84927 29.4002 3.00148C29.4601 3.3393 29.5231 3.71598 29.592 4.13452C29.6609 4.55305 29.7388 4.97457 29.8167 5.40806C29.8946 5.84154 29.9756 6.27204 30.0535 6.69955C30.1314 7.12705 30.2033 7.51868 30.2662 7.89536C30.3292 8.27204 30.3921 8.568 30.446 8.83705C30.5 9.10611 30.5389 9.29744 30.5659 9.41104L33.3738 3.55156C33.4452 3.40346 33.5588 3.2797 33.7004 3.1958C33.8387 3.13798 33.9912 3.12339 34.1379 3.15395L36.3105 3.4529C36.4489 3.46711 36.5831 3.5077 36.7061 3.57248C36.7819 3.61755 36.8384 3.68884 36.8649 3.77278C36.8855 3.85729 36.8793 3.94611 36.8469 4.02689C36.8141 4.13105 36.7698 4.2313 36.7151 4.32584L35.3636 6.64572C35.3935 6.75633 35.4505 6.94469 35.5374 7.20478C35.6243 7.46487 35.7262 7.7698 35.8371 8.10164C35.9479 8.43348 36.0618 8.78922 36.1757 9.15394C36.2896 9.51867 36.3795 9.86248 36.4484 10.1764L39.538 4.41554C39.6092 4.27479 39.7117 4.15209 39.8376 4.05679C39.957 3.99649 40.0937 3.97957 40.2242 4.00895L42.2499 4.28698C42.4675 4.29673 42.674 4.3849 42.8313 4.53512C42.9242 4.66068 42.9032 4.86994 42.7624 5.15993L37.0148 14.9955C36.9371 15.101 36.834 15.1853 36.7151 15.2406C36.5541 15.3039 36.3783 15.3195 36.2086 15.2855L35.2467 15.1539C35.0628 15.143 34.8865 15.0774 34.7403 14.9656C34.639 14.8752 34.5618 14.7612 34.5155 14.6338L33.3738 10.2332L31.1143 14.1704C31.0374 14.2675 30.9441 14.3505 30.8386 14.4155C30.7073 14.4854 30.5551 14.5056 30.4101 14.4723L29.3193 14.3229C29.1382 14.3126 28.9636 14.2515 28.8158 14.1465C28.7239 14.0607 28.6602 13.9492 28.633 13.8266L25.8521 2.92974Z" fill="#7989C4"/>
<path d="M56.3614 14.3229C56.3728 14.4228 56.3667 14.524 56.3434 14.6218C56.3185 14.7194 56.2628 14.8064 56.1846 14.8699C56.1272 14.942 56.0502 14.9959 55.9628 15.0254C55.8862 15.0521 55.8067 15.0702 55.7261 15.0792L53.9281 15.2915C53.8232 15.312 53.7153 15.312 53.6104 15.2915C53.5315 15.27 53.4593 15.2288 53.4006 15.1719C53.3389 15.1095 53.2873 15.0379 53.2478 14.9596L53.11 14.6846L52.9421 14.287C52.7855 14.4821 52.6153 14.6659 52.4327 14.8371C52.2339 15.0269 52.0171 15.1971 51.7854 15.3453C51.5388 15.5037 51.2768 15.637 51.0033 15.7429C50.7147 15.8559 50.4124 15.9302 50.1043 15.9641C49.0576 16.0913 47.9959 15.9407 47.0262 15.5276C46.0565 15.1145 45.2132 14.4535 44.5814 13.6114C44.2636 13.1892 44.0036 12.7268 43.8083 12.2362C43.6042 11.7251 43.4691 11.1893 43.4067 10.6427C43.3056 9.85036 43.3635 9.04582 43.577 8.27597C43.7905 7.50611 44.1554 6.78631 44.6503 6.15844C45.1419 5.53763 45.752 5.02031 46.4454 4.63646C47.1389 4.2526 47.9017 4.00985 48.6899 3.92225C49.047 3.87726 49.4085 3.87726 49.7657 3.92225C50.0878 3.96569 50.4036 4.04698 50.7066 4.16441C50.9917 4.27673 51.2616 4.42438 51.5097 4.60388C51.7491 4.77944 51.9691 4.97986 52.166 5.20178L52.3338 4.3378C52.3788 4.17637 52.4147 4.03885 52.4417 3.94618C52.4621 3.86547 52.4977 3.78937 52.5466 3.72196C52.5868 3.66964 52.6423 3.631 52.7054 3.61135C52.7966 3.58101 52.8912 3.56194 52.9871 3.55455L54.3566 3.39311C54.4372 3.3841 54.5187 3.3841 54.5993 3.39311C54.692 3.40065 54.7805 3.43493 54.854 3.49177C54.9395 3.54412 55.0113 3.61581 55.0638 3.70103C55.1158 3.79274 55.1465 3.89489 55.1537 3.99998L56.3614 14.3229ZM46.7091 10.2511C46.751 10.6365 46.8595 11.0117 47.0297 11.3602C47.1856 11.6832 47.4047 11.9719 47.674 12.2093C47.9353 12.4394 48.2413 12.6134 48.573 12.7205C48.9332 12.8325 49.3134 12.8662 49.6878 12.8191C50.0809 12.7767 50.4613 12.6546 50.8055 12.4604C51.1304 12.277 51.4172 12.0335 51.6506 11.7429C51.8828 11.4516 52.0549 11.1173 52.157 10.7593C52.3662 10.003 52.2704 9.19506 51.8903 8.50821C51.7074 8.17748 51.4634 7.88431 51.1711 7.64423C50.8767 7.40565 50.5389 7.22598 50.1762 7.11508C49.7969 7.00077 49.3977 6.96717 49.0045 7.01644C48.6279 7.0547 48.265 7.17842 47.9437 7.37816C47.6401 7.56815 47.3789 7.8185 47.1765 8.11359C46.9735 8.41595 46.8292 8.75364 46.751 9.10911C46.6709 9.48449 46.6567 9.8709 46.7091 10.2511Z" fill="#7989C4"/>
<path d="M57.2635 4.62484C57.2422 4.52633 57.2422 4.42441 57.2635 4.32589C57.2908 4.23836 57.3369 4.15779 57.3984 4.08972C57.4613 4.02357 57.5353 3.96893 57.6172 3.92828C57.696 3.8871 57.781 3.85883 57.8689 3.84458L59.2503 3.62036C59.3167 3.60635 59.3852 3.60601 59.4517 3.61938C59.5182 3.63274 59.5812 3.65953 59.6369 3.69808C59.7538 3.77919 59.8553 3.88042 59.9366 3.99704C60.0278 4.13656 60.109 4.28243 60.1793 4.43352C60.2552 4.5937 60.3403 4.74941 60.434 4.89988C60.5839 4.66969 60.7337 4.44249 60.8805 4.21827C61.0253 4.00329 61.1909 3.80302 61.375 3.62036C61.5588 3.43326 61.7675 3.2723 61.9953 3.14203C62.2495 2.99978 62.5279 2.90553 62.8164 2.86401C63.1132 2.8125 63.4142 2.78848 63.7154 2.79225C63.9747 2.79775 64.2328 2.82981 64.4856 2.88792C64.7422 2.94802 64.993 3.03107 65.2347 3.13606C65.4864 3.24368 65.7621 3.37522 66.0618 3.5247C66.3615 3.67417 66.5083 3.79375 66.5413 4.00003C66.5582 4.16743 66.5313 4.33634 66.4634 4.49032L65.864 6.0359C65.8181 6.15248 65.743 6.25541 65.646 6.33493C65.549 6.41446 65.4332 6.46795 65.3096 6.49032C65.1671 6.50936 65.0221 6.49816 64.8841 6.45744C64.6115 6.2613 64.3075 6.1127 63.9851 6.01797C63.6729 5.93681 63.3469 5.92356 63.0292 5.9791C62.8191 6.0117 62.6163 6.08048 62.4298 6.18239C62.2631 6.27665 62.1141 6.39905 61.9893 6.54413C61.8555 6.69713 61.7408 6.86578 61.6477 7.04637C61.5488 7.2377 61.4499 7.44696 61.348 7.67417L62.4208 14.2691C62.4441 14.3617 62.4487 14.4581 62.4343 14.5525C62.4199 14.647 62.3868 14.7376 62.3369 14.8192C62.2716 14.8978 62.1909 14.9622 62.0996 15.0085C62.0084 15.0548 61.9087 15.0819 61.8065 15.0882L59.7448 15.4051C59.6501 15.4344 59.5499 15.4412 59.4521 15.4252C59.3543 15.4091 59.2616 15.3705 59.1814 15.3125C59.1011 15.2545 59.0355 15.1786 58.9898 15.0909C58.944 15.0032 58.9193 14.9061 58.9177 14.8072L57.2635 4.62484Z" fill="#7989C4"/>
<path d="M76.1244 13.9312C75.9285 14.0901 75.7223 14.2359 75.5071 14.3677C75.2737 14.5116 75.028 14.6346 74.7729 14.7354C74.5053 14.8422 74.227 14.9203 73.9429 14.9686C73.6389 15.0193 73.3295 15.0293 73.0229 14.9985C72.2286 14.9272 71.4585 14.6888 70.7634 14.2989C70.1082 13.9323 69.5351 13.4358 69.0792 12.8401C68.6192 12.2324 68.2804 11.5423 68.0814 10.8072C67.6641 9.22049 67.831 7.53715 68.5518 6.06278C68.8922 5.38249 69.3601 4.77358 69.9303 4.26905C70.495 3.77385 71.1561 3.40034 71.8722 3.17189C72.6309 2.92913 73.4325 2.84865 74.2246 2.93572C74.5356 2.96373 74.8429 3.02385 75.1415 3.11509C75.3998 3.19432 75.6473 3.30476 75.8787 3.44394C76.0958 3.57241 76.297 3.72593 76.4781 3.90134C76.6578 4.0749 76.8241 4.26178 76.9755 4.46038L77.3561 0.630785C77.3692 0.447857 77.4517 0.276791 77.5868 0.152457C77.6631 0.0882996 77.7525 0.0416484 77.8488 0.015817C77.9452 -0.0100144 78.046 -0.0143939 78.1442 0.00298043L80.2149 0.209259C80.3016 0.219288 80.3858 0.244594 80.4636 0.283998C80.5495 0.326352 80.6275 0.382963 80.6944 0.451411C80.7619 0.519924 80.8148 0.601248 80.8502 0.69057C80.8896 0.785001 80.904 0.887933 80.8922 0.989524L79.5227 14.7145C79.4747 15.1868 79.202 15.3961 78.7046 15.3483L76.9066 15.1689C76.8095 15.1632 76.7147 15.1378 76.6279 15.0942C76.5641 15.0573 76.5097 15.0061 76.4691 14.9447C76.4247 14.8719 76.3904 14.7935 76.3672 14.7115C76.3412 14.6178 76.3052 14.5102 76.2593 14.3886L76.1244 13.9312ZM71.2039 8.72345C71.1618 9.10954 71.1871 9.49999 71.2788 9.87743C71.3618 10.2257 71.5136 10.554 71.7253 10.843C71.9435 11.1354 72.2215 11.3782 72.5407 11.5555C72.8599 11.7327 73.2132 11.8404 73.5773 11.8714C74.3278 11.9511 75.0799 11.7367 75.6749 11.2735C76.2597 10.8077 76.6453 10.1377 76.7538 9.39909V9.27055C76.8323 8.50335 76.6064 7.73597 76.1244 7.13302C75.8907 6.83609 75.6005 6.58819 75.2704 6.40357C74.9244 6.2099 74.5416 6.09075 74.1466 6.0538C73.7703 6.01238 73.3895 6.05528 73.0319 6.17936C72.6972 6.3014 72.3912 6.49067 72.1329 6.73542C71.867 6.99169 71.6524 7.29605 71.5006 7.63228C71.3405 7.97664 71.2402 8.3456 71.2039 8.72345Z" fill="#7989C4"/>
<path d="M83.2176 2.24812C83.2182 2.1401 83.254 2.0352 83.3195 1.94917C83.3558 1.90408 83.4013 1.86719 83.4529 1.84091C83.5046 1.81463 83.5612 1.79956 83.6191 1.7967L86.8046 1.49774C86.9068 1.4818 87.0114 1.50328 87.0989 1.55823C87.1865 1.61318 87.2512 1.69788 87.2811 1.7967L90.6254 9.86844L92.3065 1.27652C92.3242 1.17143 92.3765 1.07523 92.4553 1.0032C92.534 0.931172 92.6345 0.887426 92.741 0.878906L95.8905 0.565008C95.9972 0.556158 96.1036 0.585866 96.1902 0.648715C96.2375 0.680064 96.2781 0.720547 96.3095 0.767784C96.3409 0.815021 96.3625 0.868051 96.373 0.923747C96.8045 3.05429 97.239 5.16989 97.6765 7.27054C98.1141 9.37118 98.5556 11.4898 99.0011 13.6263V13.6711C99.0251 13.9103 98.9022 14.0418 98.6325 14.0687L96.0284 14.3318C95.9725 14.3456 95.9143 14.3468 95.8579 14.3355C95.8015 14.3241 95.7484 14.3004 95.7022 14.2661C95.6561 14.2318 95.6182 14.1877 95.5911 14.1371C95.5641 14.0864 95.5487 14.0304 95.5459 13.9731L94.0296 6.95365L92.6781 14.3049C92.6607 14.3905 92.6227 14.4706 92.5672 14.5381C92.5456 14.5779 92.5153 14.6123 92.4784 14.6387C92.4416 14.6652 92.3992 14.6829 92.3544 14.6906L89.9331 14.9327C89.8871 14.9338 89.8414 14.9257 89.7987 14.9087C89.7559 14.8918 89.7171 14.8664 89.6844 14.8341C89.6111 14.7817 89.5565 14.7073 89.5286 14.6218L86.7417 7.70402L86.6518 14.8789C86.6668 15.148 86.5319 15.2974 86.2442 15.3273L83.6371 15.5904C83.5835 15.6025 83.5278 15.602 83.4743 15.589C83.4209 15.576 83.3712 15.5509 83.3292 15.5156C83.2871 15.4803 83.2538 15.4357 83.2318 15.3854C83.2099 15.3352 83.1999 15.2805 83.2026 15.2257L83.2176 2.24812Z" fill="#F48170"/>
<path d="M110.416 12.3557C109.971 12.9338 109.427 13.4288 108.81 13.8176C108.184 14.2114 107.486 14.4767 106.757 14.5979C105.153 14.8846 103.5 14.5372 102.148 13.6293C101.496 13.1839 100.937 12.6175 100.5 11.9611C100.041 11.271 99.7345 10.4914 99.6008 9.6741C99.4214 8.64186 99.5038 7.58125 99.8405 6.58892C100.003 6.11198 100.225 5.65707 100.5 5.23465C100.778 4.81141 101.111 4.42731 101.492 4.09264C101.879 3.75462 102.309 3.46914 102.771 3.24362C103.258 3.0082 103.775 2.84311 104.309 2.75334C104.803 2.66724 105.307 2.64913 105.807 2.69952C106.297 2.75111 106.78 2.86359 107.242 3.03435C107.701 3.20419 108.136 3.43119 108.537 3.70998C108.937 3.98442 109.303 4.30669 109.625 4.66962C109.944 5.03116 110.214 5.43325 110.428 5.86544C110.644 6.3006 110.795 6.76487 110.877 7.24361C110.931 7.5605 110.973 7.81761 110.997 8.0209C111.026 8.18933 111.006 8.36254 110.94 8.52015C110.857 8.66943 110.721 8.78316 110.56 8.84003C110.282 8.94316 109.993 9.01632 109.7 9.05826L103.137 10.1943C103.246 10.5304 103.43 10.8371 103.676 11.0912C103.891 11.3076 104.145 11.4811 104.425 11.6024C104.69 11.7146 104.972 11.7813 105.259 11.7997C105.523 11.821 105.788 11.8099 106.05 11.7668C106.276 11.7269 106.498 11.6648 106.712 11.5814C106.932 11.4975 107.145 11.3976 107.35 11.2825C107.543 11.176 107.727 11.053 107.899 10.9148C108.042 10.8031 108.169 10.6724 108.276 10.5261C108.345 10.4472 108.419 10.3733 108.498 10.3049C108.559 10.2541 108.632 10.221 108.711 10.2092C108.798 10.195 108.887 10.2086 108.965 10.2481C109.077 10.3 109.184 10.3631 109.283 10.4364L110.44 11.3602C110.507 11.4126 110.563 11.4776 110.605 11.5515C110.634 11.6122 110.655 11.6766 110.668 11.7429C110.69 11.8557 110.673 11.9729 110.62 12.0747C110.566 12.178 110.497 12.2728 110.416 12.3557ZM104.722 5.53958C104.485 5.57878 104.258 5.6674 104.057 5.79968C103.847 5.93172 103.658 6.0939 103.496 6.28099C103.328 6.47263 103.184 6.68334 103.065 6.90878C102.95 7.12234 102.858 7.34791 102.792 7.58143L107.449 6.77724C107.288 6.57008 107.112 6.37523 106.922 6.1943C106.742 6.02255 106.54 5.87482 106.322 5.75483C106.098 5.63573 105.855 5.55491 105.603 5.51567C105.308 5.47272 105.008 5.4808 104.716 5.53958H104.722Z" fill="#F48170"/>
</g>
<defs>
<clipPath id="clip0_38_57">
<rect width="111" height="16" fill="white"/>
</clipPath>
</defs>
</svg>
