<svg width="16" height="16" viewBox="0 0 16 16" fill="none" xmlns="http://www.w3.org/2000/svg">
<rect width="16" height="16" rx="4" fill="#E6E9F6"/>
<path d="M2.00095 5.00866C1.99633 4.9612 2.00865 4.91363 2.0356 4.87484C2.05087 4.8565 2.06987 4.84185 2.09126 4.83194C2.11265 4.82203 2.13589 4.81709 2.15934 4.81748L4.62183 4.65688C4.87355 4.63928 5.12612 4.6744 5.36429 4.76012C5.59298 4.8431 5.80483 4.96884 5.98919 5.13103C6.17045 5.29396 6.31959 5.49128 6.42848 5.71223C6.54049 5.9395 6.60579 6.18812 6.62028 6.44256C6.63131 6.61358 6.61797 6.78535 6.58069 6.95239C6.50827 7.2754 6.35513 7.57331 6.13645 7.81656C6.02937 7.9375 5.90798 8.04412 5.77512 8.13392L6.87272 9.97441C6.89252 10.0101 6.9185 10.0522 6.94944 10.1019C6.97694 10.1389 6.99406 10.183 6.99894 10.2293C7.00137 10.2474 6.99961 10.2659 6.9938 10.2832C6.988 10.3004 6.97831 10.3161 6.96553 10.3287C6.93539 10.3539 6.89789 10.3678 6.85911 10.3682L5.55114 10.4536C5.50757 10.458 5.46387 10.4467 5.4274 10.4218C5.39161 10.3989 5.36553 10.3629 5.35439 10.3211L4.31742 8.5864L3.69871 8.62591L3.8076 10.3976C3.81503 10.5097 3.75934 10.5696 3.64302 10.5773L2.51077 10.6512C2.46695 10.6566 2.42277 10.6447 2.38703 10.6181C2.36926 10.6025 2.35522 10.5828 2.34599 10.5607C2.33676 10.5386 2.3326 10.5146 2.33382 10.4906L2.00095 5.00866ZM5.09453 6.55855C5.08983 6.47797 5.07096 6.39894 5.03885 6.3253C5.00619 6.24927 4.9619 6.17913 4.90768 6.11755C4.85223 6.0551 4.78645 6.00331 4.7134 5.96459C4.63868 5.92372 4.55649 5.89941 4.4721 5.89322H4.27411C4.21142 5.89322 4.14336 5.89577 4.06994 5.90087L3.54279 5.93528L3.63189 7.37683L4.33351 7.33094C4.37929 7.33094 4.42013 7.32329 4.45725 7.31819C4.49438 7.31309 4.53274 7.308 4.57481 7.29908C4.65896 7.28507 4.73917 7.25246 4.80992 7.20349C4.87669 7.15742 4.93424 7.09857 4.97945 7.03014C5.02435 6.96219 5.05743 6.88671 5.07721 6.80709C5.09559 6.72568 5.10102 6.64174 5.09329 6.55855H5.09453Z" fill="#7989C4"/>
<path d="M8.3191 4.69592C8.32693 4.65141 8.34902 4.61064 8.38206 4.57974C8.4002 4.56369 8.42154 4.55166 8.44468 4.54443C8.46782 4.53721 8.49224 4.53496 8.51633 4.53783L9.85111 4.6375C9.89438 4.63808 9.936 4.65426 9.96828 4.68305C10.0006 4.71184 10.0213 4.75131 10.0267 4.79416L10.8411 8.35746L12.1359 4.93137C12.1505 4.88926 12.1789 4.85325 12.2164 4.82905C12.2539 4.80485 12.2984 4.79385 12.3429 4.79779L13.6639 4.88877C13.7086 4.89259 13.7503 4.91229 13.7817 4.94427C13.799 4.96052 13.8129 4.98005 13.8225 5.00173C13.8322 5.02342 13.8374 5.0468 13.8378 5.07051C13.8667 5.97946 13.8978 6.88246 13.9312 7.77951C13.9646 8.67655 13.9984 9.58127 14.0326 10.4937L14.0295 10.5122C14.0226 10.6125 13.9628 10.6581 13.8496 10.6504L12.7571 10.5766C12.7331 10.5784 12.7091 10.5748 12.6866 10.5662C12.6641 10.5575 12.6439 10.544 12.6272 10.5267C12.6106 10.5093 12.598 10.4885 12.5904 10.4657C12.5828 10.4429 12.5804 10.4187 12.5833 10.3949L12.4492 7.39353L11.3772 10.331C11.3641 10.3651 11.3427 10.3954 11.3151 10.4194C11.3035 10.4343 11.2885 10.4464 11.2715 10.4547C11.2544 10.463 11.2357 10.4674 11.2167 10.4674L10.2011 10.3978C10.182 10.395 10.1637 10.3885 10.1473 10.3785C10.1309 10.3685 10.1166 10.3553 10.1054 10.3397C10.0788 10.313 10.0615 10.2785 10.056 10.2412L9.39074 7.1929L8.85144 10.1459C8.83879 10.2579 8.7727 10.3101 8.65196 10.3023L7.55823 10.2284C7.53526 10.2296 7.51232 10.2255 7.4912 10.2164C7.47007 10.2073 7.45134 10.1934 7.43646 10.1759C7.42158 10.1584 7.41096 10.1377 7.40542 10.1154C7.39988 10.0932 7.39958 10.0699 7.40454 10.0475L8.3191 4.69592Z" fill="#F48170"/>
</svg>
